<svg id="Alk_medical_affairs_logo" xmlns="http://www.w3.org/2000/svg" width="137.497" height="78.131" viewBox="0 0 137.497 78.131">
  <g id="Group_24" data-name="Group 24">
    <g id="Group_23" data-name="Group 23">
      <g id="Group_22" data-name="Group 22" transform="translate(27.86 25.751)">
        <path id="Path_1" data-name="Path 1" d="M160.118,124.665a8.024,8.024,0,0,0,5.4,1.626,9.951,9.951,0,0,0,4.043-.7,5.089,5.089,0,0,0,2.5-2.065,5.635,5.635,0,0,0,.879-2.988,5.794,5.794,0,0,0-.747-2.988,4.779,4.779,0,0,0-2.065-1.89,16.95,16.95,0,0,0-4.043-1.362,9.891,9.891,0,0,1-3.428-1.23,1.526,1.526,0,0,1-.571-1.143,1.325,1.325,0,0,1,.615-1.143,4.288,4.288,0,0,1,2.549-.659,3.926,3.926,0,0,1,2.373.615,3.2,3.2,0,0,1,1.055,2.065l3.735-.176a5.283,5.283,0,0,0-1.846-4.087A7.947,7.947,0,0,0,165.3,107a9.167,9.167,0,0,0-3.647.659,5.241,5.241,0,0,0-2.329,1.89,4.9,4.9,0,0,0-.791,2.681,4.772,4.772,0,0,0,1.714,3.735,9.5,9.5,0,0,0,4.219,1.846c1.538.4,2.549.659,2.988.835a3.005,3.005,0,0,1,1.362.791,1.721,1.721,0,0,1,.4,1.143,2.29,2.29,0,0,1-.923,1.8,4.864,4.864,0,0,1-5.449-.088,4.328,4.328,0,0,1-1.318-2.724l-3.647.352a7.347,7.347,0,0,0,2.241,4.746M143.9,110.471h2.944c1.538,0,2.417.044,2.724.044a2.106,2.106,0,0,1,1.89,2.241,2.411,2.411,0,0,1-.4,1.406,2.112,2.112,0,0,1-1.055.791,13.3,13.3,0,0,1-3.384.22H143.86l.044-4.7Zm0,15.512v-7.778h.747a6.279,6.279,0,0,1,1.89.22,2.7,2.7,0,0,1,1.143.791,28.823,28.823,0,0,1,1.977,2.724l2.724,4.043h4.438l-2.241-3.647a17.334,17.334,0,0,0-2.153-3.032,8.51,8.51,0,0,0-2.021-1.582,6.068,6.068,0,0,0,3.691-1.714,4.94,4.94,0,0,0,1.23-3.471,5.575,5.575,0,0,0-.791-2.944,4.287,4.287,0,0,0-2.153-1.8,12.919,12.919,0,0,0-4.306-.483h-7.954v18.632l3.779.044Zm-7.338-18.632H132.83v18.632h3.735ZM118.988,118.6l2.5-6.9,2.549,6.9Zm4.526-11.249h-3.955l-7.207,18.632h3.955l1.538-4.219h7.426l1.626,4.219h4.087Zm-19.906,18.632v-7.91h7.734V114.91h-7.734v-4.394h8.964v-3.164h-12.7v18.632Zm-15.863,0v-7.91h7.734V114.91H87.744v-4.394h8.964v-3.164h-12.7v18.632ZM70.035,118.6l2.5-6.9,2.549,6.9Zm4.526-11.249H70.607L63.4,125.983h3.955l1.538-4.219h7.426l1.626,4.219h4.087Z" transform="translate(-63.4 -85.732)" fill="#fff"/>
        <path id="Path_2" data-name="Path 2" d="M173.118,76.573V73.585h-8.833V59.039h-3.559V76.573Zm-25.663-6.987,2.373-6.547,2.417,6.547Zm4.262-10.678h-3.735l-6.855,17.665h3.779l1.45-4h7.031l1.538,4h3.867ZM134.975,72.925a3.538,3.538,0,0,1-2.417.923,3.948,3.948,0,0,1-3.12-1.406c-.791-.967-1.186-2.549-1.186-4.79,0-2.109.4-3.6,1.23-4.57a3.9,3.9,0,0,1,3.164-1.406,3.8,3.8,0,0,1,2.417.791,3.761,3.761,0,0,1,1.318,2.153l3.515-.835a7.008,7.008,0,0,0-1.8-3.252,7.315,7.315,0,0,0-5.229-1.933,7.7,7.7,0,0,0-5.976,2.461,9.775,9.775,0,0,0-2.285,6.855,9.178,9.178,0,0,0,2.241,6.548,8.212,8.212,0,0,0,10.414,1.011,7.711,7.711,0,0,0,2.637-4.306l-3.428-1.1a6.039,6.039,0,0,1-1.494,2.856M121.793,58.908h-3.559V76.573h3.559ZM105.753,61.9a13.942,13.942,0,0,1,2.9.176,3.2,3.2,0,0,1,1.626.835,3.638,3.638,0,0,1,1.011,1.714,10.108,10.108,0,0,1,.352,3.164,12.6,12.6,0,0,1-.352,3.252,3.022,3.022,0,0,1-2.373,2.461,11.189,11.189,0,0,1-2.153.176h-2.637V61.9Zm-5.141,14.677h6.679a11.5,11.5,0,0,0,3.12-.352,6.237,6.237,0,0,0,2.5-1.406,7.63,7.63,0,0,0,1.89-3.12,11.878,11.878,0,0,0,.527-3.779,12.772,12.772,0,0,0-.571-4.175,7.672,7.672,0,0,0-1.67-2.856,5.92,5.92,0,0,0-2.637-1.626,12.869,12.869,0,0,0-3.34-.352h-6.5V76.573Zm-2.988,0V73.585H87.781v-4.79h8.833V65.807H87.781V61.9h9.492V58.908H84.221V76.573ZM67,76.573V62.643l3.471,13.886h3.428l3.471-13.886V76.529h3.3V58.908H75.389l-3.164,12.04-3.208-12.04H63.7V76.573Z" transform="translate(-63.568 -58.6)" fill="#fff"/>
      </g>
      <path id="Path_3" data-name="Path 3" d="M82.559.132V17.226H94.643v-2.9H86.031V.132ZM71.881,4.043l2.373,6.416h-4.7ZM70.079,0,63.4,17.226h3.691L68.5,13.315h6.855l1.494,3.911h3.779L73.771,0Zm37.571,0-6.987,7.646V0H97.192V17.226h3.471V12.04l2.812-2.9,4.7,8.085h4.482L105.849,6.679,112.308,0Z" transform="translate(-35.54)" fill="#fff"/>
      <path id="Path_4" data-name="Path 4" d="M47.132,59.762,47,0h1.846l.132,59.762Z" transform="translate(-26.347)" fill="#fff"/>
      <path id="Path_5" data-name="Path 5" d="M91.05,47.221,0,47.046V45.2l91.05.22Z" transform="translate(0 -25.338)" fill="#fff"/>
    </g>
  </g>
  <g id="Group_25" data-name="Group 25" transform="translate(76.812 70.968)">
    <path id="Path_6" data-name="Path 6" d="M174.8,168.487V161.5h.967l3.647,5.493V161.5h.879v6.987h-.967l-3.647-5.493v5.493Z" transform="translate(-174.8 -161.5)" fill="#fff"/>
    <path id="Path_7" data-name="Path 7" d="M189.8,168.337a2.558,2.558,0,0,1,.791-2.065,2.265,2.265,0,0,1,1.582-.571,2.192,2.192,0,0,1,1.714.7,2.676,2.676,0,0,1,.659,1.89,3.088,3.088,0,0,1-.308,1.538,2.018,2.018,0,0,1-.835.879,2.33,2.33,0,0,1-1.23.308,2.191,2.191,0,0,1-1.714-.7A2.829,2.829,0,0,1,189.8,168.337Zm.879,0a1.979,1.979,0,0,0,.439,1.45,1.4,1.4,0,0,0,1.055.483,1.337,1.337,0,0,0,1.055-.483,2.327,2.327,0,0,0,.439-1.494,1.931,1.931,0,0,0-.439-1.406,1.392,1.392,0,0,0-2.109,0A2.193,2.193,0,0,0,190.679,168.337Z" transform="translate(-183.209 -163.854)" fill="#fff"/>
    <path id="Path_8" data-name="Path 8" d="M202.9,170.785v-5.053h.791v.747a2.032,2.032,0,0,1,.527-.7,1.077,1.077,0,0,1,.527-.176,1.7,1.7,0,0,1,.879.264l-.308.791a1.1,1.1,0,0,0-.615-.176.661.661,0,0,0-.483.176.923.923,0,0,0-.308.483,3.522,3.522,0,0,0-.132,1.011v2.637Z" transform="translate(-190.552 -163.798)" fill="#fff"/>
    <path id="Path_9" data-name="Path 9" d="M211.685,167.908l.132.747a3.9,3.9,0,0,1-.659.088,1.421,1.421,0,0,1-.7-.132.624.624,0,0,1-.352-.4,4.333,4.333,0,0,1-.088-1.011v-2.9H209.4v-.659h.615v-1.318l.835-.527v1.758h.879v.659h-.879v2.944a1.237,1.237,0,0,0,.044.483.606.606,0,0,0,.132.176.652.652,0,0,0,.308.044C211.377,167.908,211.509,167.908,211.685,167.908Z" transform="translate(-194.196 -161.668)" fill="#fff"/>
    <path id="Path_10" data-name="Path 10" d="M216.5,168.487V161.5h.835V164a1.87,1.87,0,0,1,1.494-.7,2.1,2.1,0,0,1,.967.22,1.388,1.388,0,0,1,.615.615,2.584,2.584,0,0,1,.176,1.143v3.208h-.835v-3.208a1.286,1.286,0,0,0-.264-.923,1.09,1.09,0,0,0-.791-.308,1.289,1.289,0,0,0-.7.176,1.118,1.118,0,0,0-.483.527,2.567,2.567,0,0,0-.132.923v2.768l-.879.044Z" transform="translate(-198.176 -161.5)" fill="#fff"/>
    <path id="Path_11" data-name="Path 11" d="M232.2,168.487l2.681-6.987h1.011l2.856,6.987h-1.055l-.835-2.109h-2.9l-.747,2.109Zm2.021-2.856h2.373l-.747-1.934a11.1,11.1,0,0,1-.483-1.45,7.515,7.515,0,0,1-.4,1.318Z" transform="translate(-206.977 -161.5)" fill="#fff"/>
    <path id="Path_12" data-name="Path 12" d="M248.6,170.785v-5.053h.747v.7a2.053,2.053,0,0,1,.615-.615,1.544,1.544,0,0,1,.879-.22,1.908,1.908,0,0,1,.923.22,1.436,1.436,0,0,1,.483.659,1.84,1.84,0,0,1,1.538-.879,1.57,1.57,0,0,1,1.143.4,1.771,1.771,0,0,1,.4,1.274v3.471h-.835v-3.164a2.867,2.867,0,0,0-.088-.747.782.782,0,0,0-.308-.352.937.937,0,0,0-.527-.132,1.227,1.227,0,0,0-.879.352,1.611,1.611,0,0,0-.352,1.143v2.944h-.879v-3.3a1.358,1.358,0,0,0-.22-.835.809.809,0,0,0-.7-.264,1.144,1.144,0,0,0-.659.176,1.179,1.179,0,0,0-.439.571,3.43,3.43,0,0,0-.132,1.055v2.637l-.7-.044Z" transform="translate(-216.17 -163.798)" fill="#fff"/>
    <path id="Path_13" data-name="Path 13" d="M270.079,169.1l.879.088a1.92,1.92,0,0,1-.791,1.186,2.575,2.575,0,0,1-1.45.439,2.224,2.224,0,0,1-1.758-.7,2.644,2.644,0,0,1-.659-1.933,2.829,2.829,0,0,1,.659-1.977,2.191,2.191,0,0,1,1.714-.7,2.161,2.161,0,0,1,1.67.7,2.715,2.715,0,0,1,.659,1.934v.22h-3.779a1.873,1.873,0,0,0,.483,1.274,1.428,1.428,0,0,0,1.055.439,1.227,1.227,0,0,0,.791-.264A1.151,1.151,0,0,0,270.079,169.1Zm-2.812-1.362h2.812a1.794,1.794,0,0,0-.308-.967,1.216,1.216,0,0,0-1.055-.483,1.425,1.425,0,0,0-1.45,1.45Z" transform="translate(-226.092 -163.742)" fill="#fff"/>
    <path id="Path_14" data-name="Path 14" d="M279.4,170.785v-5.053h.791v.747a2.8,2.8,0,0,1,.527-.7,1.077,1.077,0,0,1,.527-.176,1.7,1.7,0,0,1,.879.264l-.308.791a1.2,1.2,0,0,0-.615-.176.661.661,0,0,0-.483.176.924.924,0,0,0-.308.483,3.524,3.524,0,0,0-.132,1.011v2.637Z" transform="translate(-233.436 -163.798)" fill="#fff"/>
    <path id="Path_15" data-name="Path 15" d="M286.8,162.567V161.6h.879v.967Zm0,5.976V163.49h.879v5.053Z" transform="translate(-237.584 -161.556)" fill="#fff"/>
    <path id="Path_16" data-name="Path 16" d="M294.659,168.94l.835.088a2.266,2.266,0,0,1-.7,1.362,1.964,1.964,0,0,1-1.406.483,2.217,2.217,0,0,1-1.67-.659,2.629,2.629,0,0,1-.615-1.934,3.872,3.872,0,0,1,.264-1.45,1.722,1.722,0,0,1,.835-.923,2.437,2.437,0,0,1,1.23-.308,2.271,2.271,0,0,1,1.362.4,1.775,1.775,0,0,1,.659,1.186l-.835.132a1.143,1.143,0,0,0-.439-.747,1.39,1.39,0,0,0-.747-.264,1.337,1.337,0,0,0-1.055.483,2.2,2.2,0,0,0-.4,1.45,2.253,2.253,0,0,0,.4,1.494,1.314,1.314,0,0,0,1.011.483,1.094,1.094,0,0,0,.835-.308A1.34,1.34,0,0,0,294.659,168.94Z" transform="translate(-239.994 -163.798)" fill="#fff"/>
    <path id="Path_17" data-name="Path 17" d="M305.759,170.17a2.645,2.645,0,0,1-.923.571,3.423,3.423,0,0,1-.923.176,1.844,1.844,0,0,1-1.274-.4,1.3,1.3,0,0,1-.439-1.055,1.059,1.059,0,0,1,.176-.659,1.568,1.568,0,0,1,.439-.483,1.541,1.541,0,0,1,.615-.264c.176-.044.439-.088.747-.132a7.152,7.152,0,0,0,1.538-.308v-.22a1.08,1.08,0,0,0-.22-.747,1.491,1.491,0,0,0-.967-.308,1.512,1.512,0,0,0-.879.22,1.353,1.353,0,0,0-.439.747l-.835-.132a2.322,2.322,0,0,1,.4-.879,1.909,1.909,0,0,1,.747-.527,2.976,2.976,0,0,1,1.143-.176,2.4,2.4,0,0,1,1.055.176,1.25,1.25,0,0,1,.615.4,1.362,1.362,0,0,1,.264.571,3.372,3.372,0,0,1,.044.791v1.143a10.877,10.877,0,0,0,.044,1.494,2.092,2.092,0,0,0,.22.615h-.879A1.1,1.1,0,0,1,305.759,170.17Zm-.088-1.933a6.231,6.231,0,0,1-1.406.308,2.044,2.044,0,0,0-.747.176,1.057,1.057,0,0,0-.352.264.709.709,0,0,0-.132.4.774.774,0,0,0,.264.571,1.016,1.016,0,0,0,.747.22,1.858,1.858,0,0,0,.879-.22,1.3,1.3,0,0,0,.571-.615,2.065,2.065,0,0,0,.132-.835l.044-.264Z" transform="translate(-246.217 -163.798)" fill="#fff"/>
  </g>
</svg>
